<svg xmlns="http://www.w3.org/2000/svg" xmlns:xlink="http://www.w3.org/1999/xlink" width="220" zoomAndPan="magnify" viewBox="0 0 165 36.000001" height="48" preserveAspectRatio="xMidYMid meet" version="1.0"><defs><g/><clipPath id="07e723e83f"><path d="M 18.785156 0 L 146.363281 0 L 146.363281 34.628906 L 18.785156 34.628906 Z M 18.785156 0 " clip-rule="nonzero"/></clipPath><clipPath id="8a85ef46b8"><path d="M 22.222656 3.292969 L 82.378906 3.292969 L 82.378906 31.734375 L 22.222656 31.734375 Z M 22.222656 3.292969 " clip-rule="nonzero"/></clipPath></defs><g clip-path="url(#07e723e83f)"><path stroke-linecap="butt" transform="matrix(1.828247, 0, 0, 1.801789, 18.787015, 0.000401171)" fill="none" stroke-linejoin="miter" d="M -0.00101673 -0.000222652 L 69.780665 -0.000222652 L 69.780665 19.218955 L -0.00101673 19.218955 Z M -0.00101673 -0.000222652 " stroke="#f13024" stroke-width="0.800786" stroke-opacity="1" stroke-miterlimit="4"/></g><g clip-path="url(#8a85ef46b8)"><path fill="#f13024" d="M 22.222656 3.292969 L 82.378906 3.292969 L 82.378906 31.734375 L 22.222656 31.734375 Z M 22.222656 3.292969 " fill-opacity="1" fill-rule="nonzero"/></g><g fill="#ffffff" fill-opacity="1"><g transform="translate(23.809827, 21.033808)"><g><path d="M 0.902344 0 L 2.597656 0 L 2.597656 -4.605469 L 5.914062 0 L 7.363281 0 L 7.363281 -7.515625 L 5.667969 -7.515625 L 5.667969 -2.941406 L 2.351562 -7.515625 L 0.902344 -7.515625 Z M 0.902344 0 "/></g></g></g><g fill="#ffffff" fill-opacity="1"><g transform="translate(32.88798, 21.033808)"><g><path d="M 0.0976562 0 L 1.921875 0 L 2.425781 -1.300781 L 5.410156 -1.300781 L 5.914062 0 L 7.738281 0 L 4.753906 -7.515625 L 3.082031 -7.515625 Z M 2.867188 -2.640625 L 3.917969 -5.390625 L 4.980469 -2.640625 Z M 2.867188 -2.640625 "/></g></g></g><g fill="#ffffff" fill-opacity="1"><g transform="translate(41.53693, 21.033808)"><g><path d="M 0.902344 0 L 2.597656 0 L 2.597656 -4.53125 L 4.421875 -1.855469 L 5.605469 -1.855469 L 7.429688 -4.519531 L 7.429688 0 L 9.125 0 L 9.125 -7.515625 L 7.6875 -7.515625 L 5.023438 -3.617188 L 2.351562 -7.515625 L 0.902344 -7.515625 Z M 0.902344 0 "/></g></g></g><g fill="#ffffff" fill-opacity="1"><g transform="translate(52.374834, 21.033808)"><g><path d="M 0.0976562 0 L 1.921875 0 L 2.425781 -1.300781 L 5.410156 -1.300781 L 5.914062 0 L 7.738281 0 L 4.753906 -7.515625 L 3.082031 -7.515625 Z M 2.867188 -2.640625 L 3.917969 -5.390625 L 4.980469 -2.640625 Z M 2.867188 -2.640625 "/></g></g></g><g fill="#ffffff" fill-opacity="1"><g transform="translate(61.023783, 21.033808)"><g><path d="M 0.902344 0 L 2.597656 0 L 2.597656 -4.605469 L 5.914062 0 L 7.363281 0 L 7.363281 -7.515625 L 5.667969 -7.515625 L 5.667969 -2.941406 L 2.351562 -7.515625 L 0.902344 -7.515625 Z M 0.902344 0 "/></g></g></g><g fill="#ffffff" fill-opacity="1"><g transform="translate(70.101936, 21.033808)"><g><path d="M 0.878906 -5.398438 L 0.878906 -4.617188 C 1.953125 -4.691406 2.554688 -5.679688 2.554688 -6.65625 C 2.554688 -7.417969 2.148438 -8.03125 1.417969 -8.03125 C 0.828125 -8.03125 0.441406 -7.621094 0.441406 -7.09375 C 0.441406 -6.570312 0.828125 -6.171875 1.386719 -6.171875 C 1.4375 -6.171875 1.492188 -6.171875 1.554688 -6.183594 C 1.535156 -5.765625 1.300781 -5.507812 0.878906 -5.398438 Z M 0.878906 -5.398438 "/></g></g></g><g fill="#ffffff" fill-opacity="1"><g transform="translate(73.911574, 21.033808)"><g><path d="M 3.519531 0.148438 C 5.304688 0.148438 6.398438 -0.699219 6.398438 -2.113281 C 6.398438 -3.304688 5.613281 -4.015625 3.746094 -4.453125 C 2.597656 -4.722656 2.199219 -5.011719 2.199219 -5.476562 C 2.199219 -5.96875 2.640625 -6.269531 3.359375 -6.269531 C 4.144531 -6.269531 4.617188 -5.859375 4.617188 -5.183594 L 6.257812 -5.183594 C 6.257812 -6.699219 5.121094 -7.664062 3.339844 -7.664062 C 1.609375 -7.664062 0.535156 -6.816406 0.535156 -5.441406 C 0.535156 -4.21875 1.363281 -3.488281 3.125 -3.113281 C 4.1875 -2.886719 4.667969 -2.578125 4.667969 -2.050781 C 4.667969 -1.546875 4.21875 -1.257812 3.511719 -1.257812 C 2.683594 -1.257812 2.148438 -1.675781 2.148438 -2.394531 L 0.472656 -2.394531 C 0.472656 -0.835938 1.632812 0.148438 3.519531 0.148438 Z M 3.519531 0.148438 "/></g></g></g><g fill="#f13024" fill-opacity="1"><g transform="translate(85.643136, 20.6693)"><g><path d="M 0.996094 0 L 1.855469 0 L 1.855469 -2.246094 L 3.308594 -2.246094 C 4.851562 -2.246094 5.847656 -3.132812 5.847656 -4.539062 C 5.847656 -5.933594 4.851562 -6.832031 3.308594 -6.832031 L 0.996094 -6.832031 Z M 1.855469 -3.046875 L 1.855469 -6.011719 L 3.289062 -6.011719 C 4.394531 -6.011719 4.96875 -5.503906 4.96875 -4.53125 C 4.96875 -3.554688 4.394531 -3.046875 3.289062 -3.046875 Z M 1.855469 -3.046875 "/></g></g></g><g fill="#f13024" fill-opacity="1"><g transform="translate(91.87737, 20.6693)"><g><path d="M 4.101562 0.125 C 6.179688 0.125 7.644531 -1.335938 7.644531 -3.417969 C 7.644531 -5.496094 6.179688 -6.960938 4.101562 -6.960938 C 2.019531 -6.960938 0.566406 -5.496094 0.566406 -3.417969 C 0.566406 -1.335938 2.019531 0.125 4.101562 0.125 Z M 1.445312 -3.417969 C 1.445312 -5.007812 2.527344 -6.101562 4.101562 -6.101562 C 5.671875 -6.101562 6.753906 -5.007812 6.753906 -3.417969 C 6.753906 -1.824219 5.671875 -0.730469 4.101562 -0.730469 C 2.527344 -0.730469 1.445312 -1.824219 1.445312 -3.417969 Z M 1.445312 -3.417969 "/></g></g></g><g fill="#f13024" fill-opacity="1"><g transform="translate(100.072608, 20.6693)"><g><path d="M 0.996094 0 L 1.855469 0 L 1.855469 -2.449219 L 3.359375 -2.449219 L 5.027344 0 L 6.0625 0 L 4.34375 -2.539062 C 5.339844 -2.78125 5.953125 -3.535156 5.953125 -4.636719 C 5.953125 -5.992188 5.015625 -6.832031 3.601562 -6.832031 L 0.996094 -6.832031 Z M 1.855469 -3.269531 L 1.855469 -6.011719 L 3.503906 -6.011719 C 4.5 -6.011719 5.074219 -5.503906 5.074219 -4.636719 C 5.074219 -3.769531 4.5 -3.269531 3.503906 -3.269531 Z M 1.855469 -3.269531 "/></g></g></g><g fill="#f13024" fill-opacity="1"><g transform="translate(106.716601, 20.6693)"><g><path d="M 2.644531 0 L 3.503906 0 L 3.503906 -6.011719 L 5.808594 -6.011719 L 5.808594 -6.832031 L 0.332031 -6.832031 L 0.332031 -6.011719 L 2.644531 -6.011719 Z M 2.644531 0 "/></g></g></g><g fill="#f13024" fill-opacity="1"><g transform="translate(112.863029, 20.6693)"><g><path d="M 0.996094 0 L 1.855469 0 L 1.855469 -2.878906 L 4.65625 -2.878906 L 4.65625 -3.671875 L 1.855469 -3.671875 L 1.855469 -6.03125 L 4.910156 -6.03125 L 4.910156 -6.832031 L 0.996094 -6.832031 Z M 0.996094 0 "/></g></g></g><g fill="#f13024" fill-opacity="1"><g transform="translate(118.307008, 20.6693)"><g><path d="M 4.101562 0.125 C 6.179688 0.125 7.644531 -1.335938 7.644531 -3.417969 C 7.644531 -5.496094 6.179688 -6.960938 4.101562 -6.960938 C 2.019531 -6.960938 0.566406 -5.496094 0.566406 -3.417969 C 0.566406 -1.335938 2.019531 0.125 4.101562 0.125 Z M 1.445312 -3.417969 C 1.445312 -5.007812 2.527344 -6.101562 4.101562 -6.101562 C 5.671875 -6.101562 6.753906 -5.007812 6.753906 -3.417969 C 6.753906 -1.824219 5.671875 -0.730469 4.101562 -0.730469 C 2.527344 -0.730469 1.445312 -1.824219 1.445312 -3.417969 Z M 1.445312 -3.417969 "/></g></g></g><g fill="#f13024" fill-opacity="1"><g transform="translate(126.502246, 20.6693)"><g><path d="M 0.996094 0 L 5.171875 0 L 5.171875 -0.820312 L 1.855469 -0.820312 L 1.855469 -6.832031 L 0.996094 -6.832031 Z M 0.996094 0 "/></g></g></g><g fill="#f13024" fill-opacity="1"><g transform="translate(131.975491, 20.6693)"><g><path d="M 0.996094 0 L 1.855469 0 L 1.855469 -6.832031 L 0.996094 -6.832031 Z M 0.996094 0 "/></g></g></g><g fill="#f13024" fill-opacity="1"><g transform="translate(134.824312, 20.6693)"><g><path d="M 4.101562 0.125 C 6.179688 0.125 7.644531 -1.335938 7.644531 -3.417969 C 7.644531 -5.496094 6.179688 -6.960938 4.101562 -6.960938 C 2.019531 -6.960938 0.566406 -5.496094 0.566406 -3.417969 C 0.566406 -1.335938 2.019531 0.125 4.101562 0.125 Z M 1.445312 -3.417969 C 1.445312 -5.007812 2.527344 -6.101562 4.101562 -6.101562 C 5.671875 -6.101562 6.753906 -5.007812 6.753906 -3.417969 C 6.753906 -1.824219 5.671875 -0.730469 4.101562 -0.730469 C 2.527344 -0.730469 1.445312 -1.824219 1.445312 -3.417969 Z M 1.445312 -3.417969 "/></g></g></g></svg>